<mxfile host="www.draw.io" modified="2019-10-17T08:52:36.207Z" agent="Mozilla/5.0 (Windows NT 10.0; Win64; x64) AppleWebKit/537.36 (KHTML, like Gecko) Chrome/77.0.3865.120 Safari/537.36" etag="6Jl-MReKCU1joZ5hFam_" version="12.1.2" type="github" pages="1">
  <diagram name="Page-1" id="74e2e168-ea6b-b213-b513-2b3c1d86103e">
    <mxGraphModel dx="1024" dy="1367" grid="1" gridSize="10" guides="1" tooltips="1" connect="1" arrows="1" fold="1" page="1" pageScale="1" pageWidth="1100" pageHeight="850" background="#ffffff" math="0" shadow="0">
      <root>
        <mxCell id="0"/>
        <mxCell id="1" parent="0"/>
        <mxCell id="77e6c97f196da883-1" value="E.CON.TROL" style="swimlane;html=1;childLayout=stackLayout;startSize=20;rounded=0;shadow=0;labelBackgroundColor=none;strokeColor=#000000;strokeWidth=1;fillColor=#ffffff;fontFamily=Verdana;fontSize=8;fontColor=#000000;align=center;" parent="1" vertex="1">
          <mxGeometry x="80" y="-70" width="960" height="750" as="geometry"/>
        </mxCell>
        <mxCell id="77e6c97f196da883-26" style="edgeStyle=orthogonalEdgeStyle;rounded=1;html=1;labelBackgroundColor=none;startArrow=none;startFill=0;startSize=5;endArrow=classicThin;endFill=1;endSize=5;jettySize=auto;orthogonalLoop=1;strokeColor=#000000;strokeWidth=1;fontFamily=Verdana;fontSize=8;fontColor=#000000;" parent="77e6c97f196da883-1" source="77e6c97f196da883-8" target="77e6c97f196da883-11" edge="1">
          <mxGeometry relative="1" as="geometry"/>
        </mxCell>
        <mxCell id="77e6c97f196da883-40" style="edgeStyle=orthogonalEdgeStyle;rounded=1;html=1;labelBackgroundColor=none;startArrow=none;startFill=0;startSize=5;endArrow=classicThin;endFill=1;endSize=5;jettySize=auto;orthogonalLoop=1;strokeColor=#000000;strokeWidth=1;fontFamily=Verdana;fontSize=8;fontColor=#000000;exitX=1;exitY=0.5;exitDx=0;exitDy=0;entryX=0;entryY=0.5;entryDx=0;entryDy=0;" parent="77e6c97f196da883-1" source="77e6c97f196da883-15" target="CSKlZBKtVKMVm3yxvU0s-9" edge="1">
          <mxGeometry relative="1" as="geometry">
            <mxPoint x="730" y="540" as="sourcePoint"/>
            <mxPoint x="830" y="690" as="targetPoint"/>
          </mxGeometry>
        </mxCell>
        <mxCell id="77e6c97f196da883-2" value="SPS" style="swimlane;html=1;startSize=20;" parent="77e6c97f196da883-1" vertex="1">
          <mxGeometry y="20" width="160" height="730" as="geometry"/>
        </mxCell>
        <mxCell id="77e6c97f196da883-8" value="Einlauf der BOX&lt;br&gt;Bestimmung BOX-TYPE und Vergabe BOX-ID" style="rounded=1;whiteSpace=wrap;html=1;shadow=0;labelBackgroundColor=none;strokeColor=#000000;strokeWidth=1;fillColor=#ffffff;fontFamily=Verdana;fontSize=8;fontColor=#000000;align=center;" parent="77e6c97f196da883-2" vertex="1">
          <mxGeometry x="20" y="65" width="100" height="60" as="geometry"/>
        </mxCell>
        <mxCell id="77e6c97f196da883-10" value="Pusher betätigen (Box ausschleusen)" style="rounded=1;whiteSpace=wrap;html=1;shadow=0;labelBackgroundColor=none;strokeColor=#000000;strokeWidth=1;fillColor=#ffffff;fontFamily=Verdana;fontSize=8;fontColor=#000000;align=center;" parent="77e6c97f196da883-2" vertex="1">
          <mxGeometry x="30" y="570" width="100" height="60" as="geometry"/>
        </mxCell>
        <mxCell id="77e6c97f196da883-21" value="Box ausschleusen" style="rounded=1;whiteSpace=wrap;html=1;shadow=0;labelBackgroundColor=none;strokeColor=#000000;strokeWidth=1;fillColor=#ffffff;fontFamily=Verdana;fontSize=8;fontColor=#000000;align=center;" parent="77e6c97f196da883-2" vertex="1">
          <mxGeometry x="30" y="660" width="100" height="60" as="geometry"/>
        </mxCell>
        <mxCell id="77e6c97f196da883-37" style="edgeStyle=orthogonalEdgeStyle;rounded=1;html=1;labelBackgroundColor=none;startArrow=none;startFill=0;startSize=5;endArrow=classicThin;endFill=1;endSize=5;jettySize=auto;orthogonalLoop=1;strokeColor=#000000;strokeWidth=1;fontFamily=Verdana;fontSize=8;fontColor=#000000;exitX=0.5;exitY=1;exitDx=0;exitDy=0;" parent="77e6c97f196da883-2" source="77e6c97f196da883-10" target="77e6c97f196da883-21" edge="1">
          <mxGeometry relative="1" as="geometry"/>
        </mxCell>
        <mxCell id="77e6c97f196da883-3" value="E.CON.TROL.CORE" style="swimlane;html=1;startSize=20;" parent="77e6c97f196da883-1" vertex="1">
          <mxGeometry x="160" y="20" width="160" height="730" as="geometry"/>
        </mxCell>
        <mxCell id="77e6c97f196da883-11" value="Start der Prüfung(en) E.CON.TROL.CHECK" style="rounded=1;whiteSpace=wrap;html=1;shadow=0;labelBackgroundColor=none;strokeColor=#000000;strokeWidth=1;fillColor=#ffffff;fontFamily=Verdana;fontSize=8;fontColor=#000000;align=center;" parent="77e6c97f196da883-3" vertex="1">
          <mxGeometry x="30" y="65" width="100" height="60" as="geometry"/>
        </mxCell>
        <mxCell id="CSKlZBKtVKMVm3yxvU0s-31" value="" style="edgeStyle=orthogonalEdgeStyle;rounded=1;orthogonalLoop=1;jettySize=auto;html=1;entryX=0.506;entryY=0.28;entryDx=0;entryDy=0;entryPerimeter=0;" parent="77e6c97f196da883-3" source="77e6c97f196da883-9" target="CSKlZBKtVKMVm3yxvU0s-29" edge="1">
          <mxGeometry relative="1" as="geometry">
            <mxPoint x="80" y="295" as="targetPoint"/>
          </mxGeometry>
        </mxCell>
        <mxCell id="77e6c97f196da883-9" value="Nachricht an alle Prüfungen / Übermittlung BOX-ID und BOX-TYPE&amp;nbsp;" style="rounded=1;whiteSpace=wrap;html=1;shadow=0;labelBackgroundColor=none;strokeColor=#000000;strokeWidth=1;fillColor=#ffffff;fontFamily=Verdana;fontSize=8;fontColor=#000000;align=center;" parent="77e6c97f196da883-3" vertex="1">
          <mxGeometry x="30" y="155" width="100" height="60" as="geometry"/>
        </mxCell>
        <mxCell id="77e6c97f196da883-27" style="edgeStyle=orthogonalEdgeStyle;rounded=1;html=1;labelBackgroundColor=none;startArrow=none;startFill=0;startSize=5;endArrow=classicThin;endFill=1;endSize=5;jettySize=auto;orthogonalLoop=1;strokeColor=#000000;strokeWidth=1;fontFamily=Verdana;fontSize=8;fontColor=#000000;entryX=0.5;entryY=0;entryDx=0;entryDy=0;" parent="77e6c97f196da883-3" source="77e6c97f196da883-11" target="77e6c97f196da883-9" edge="1">
          <mxGeometry relative="1" as="geometry">
            <Array as="points">
              <mxPoint x="80" y="150"/>
              <mxPoint x="80" y="150"/>
            </Array>
          </mxGeometry>
        </mxCell>
        <mxCell id="77e6c97f196da883-20" value="Fehler vorhanden" style="rhombus;whiteSpace=wrap;html=1;rounded=0;shadow=0;labelBackgroundColor=none;strokeColor=#000000;strokeWidth=1;fillColor=#ffffff;fontFamily=Verdana;fontSize=8;fontColor=#000000;align=center;" parent="77e6c97f196da883-3" vertex="1">
          <mxGeometry x="40" y="570" width="80" height="60" as="geometry"/>
        </mxCell>
        <mxCell id="CSKlZBKtVKMVm3yxvU0s-29" value="" style="line;strokeWidth=6;fillColor=none;align=left;verticalAlign=middle;spacingTop=-1;spacingLeft=3;spacingRight=3;rotatable=0;labelPosition=right;points=[];portConstraint=eastwest;rounded=1;" parent="77e6c97f196da883-3" vertex="1">
          <mxGeometry x="45" y="250" width="70" height="5" as="geometry"/>
        </mxCell>
        <mxCell id="CSKlZBKtVKMVm3yxvU0s-30" value="" style="line;strokeWidth=6;fillColor=none;align=left;verticalAlign=middle;spacingTop=-1;spacingLeft=3;spacingRight=3;rotatable=0;labelPosition=right;points=[];portConstraint=eastwest;rounded=1;" parent="77e6c97f196da883-3" vertex="1">
          <mxGeometry x="40" y="510" width="70" height="5" as="geometry"/>
        </mxCell>
        <mxCell id="CSKlZBKtVKMVm3yxvU0s-43" value="" style="edgeStyle=orthogonalEdgeStyle;rounded=1;orthogonalLoop=1;jettySize=auto;html=1;entryX=0.5;entryY=0;entryDx=0;entryDy=0;" parent="77e6c97f196da883-3" source="CSKlZBKtVKMVm3yxvU0s-30" target="77e6c97f196da883-20" edge="1">
          <mxGeometry relative="1" as="geometry">
            <Array as="points">
              <mxPoint x="80" y="540"/>
              <mxPoint x="80" y="540"/>
            </Array>
          </mxGeometry>
        </mxCell>
        <mxCell id="77e6c97f196da883-4" value="E.CON.TROL.CHECK.1" style="swimlane;html=1;startSize=20;rounded=1;" parent="77e6c97f196da883-1" vertex="1">
          <mxGeometry x="320" y="20" width="160" height="730" as="geometry"/>
        </mxCell>
        <mxCell id="77e6c97f196da883-12" value="Bildaufname bei Kamera 1" style="rounded=1;whiteSpace=wrap;html=1;shadow=0;labelBackgroundColor=none;strokeColor=#000000;strokeWidth=1;fillColor=#ffffff;fontFamily=Verdana;fontSize=8;fontColor=#000000;align=center;" parent="77e6c97f196da883-4" vertex="1">
          <mxGeometry x="30" y="155" width="100" height="60" as="geometry"/>
        </mxCell>
        <mxCell id="CSKlZBKtVKMVm3yxvU0s-21" value="" style="edgeStyle=orthogonalEdgeStyle;rounded=1;orthogonalLoop=1;jettySize=auto;html=1;" parent="77e6c97f196da883-4" source="CSKlZBKtVKMVm3yxvU0s-4" target="CSKlZBKtVKMVm3yxvU0s-6" edge="1">
          <mxGeometry relative="1" as="geometry"/>
        </mxCell>
        <mxCell id="CSKlZBKtVKMVm3yxvU0s-4" value="Bild per NETMQ bereitstellen" style="rounded=1;whiteSpace=wrap;html=1;shadow=0;labelBackgroundColor=none;strokeColor=#000000;strokeWidth=1;fillColor=#ffffff;fontFamily=Verdana;fontSize=8;fontColor=#000000;align=center;" parent="77e6c97f196da883-4" vertex="1">
          <mxGeometry x="30" y="240" width="100" height="60" as="geometry"/>
        </mxCell>
        <mxCell id="CSKlZBKtVKMVm3yxvU0s-5" value="" style="endArrow=classic;html=1;exitX=0.5;exitY=1;exitDx=0;exitDy=0;entryX=0.5;entryY=0;entryDx=0;entryDy=0;" parent="77e6c97f196da883-4" source="77e6c97f196da883-12" target="CSKlZBKtVKMVm3yxvU0s-4" edge="1">
          <mxGeometry width="50" height="50" relative="1" as="geometry">
            <mxPoint x="250" y="230" as="sourcePoint"/>
            <mxPoint x="250" y="250" as="targetPoint"/>
          </mxGeometry>
        </mxCell>
        <mxCell id="CSKlZBKtVKMVm3yxvU0s-50" value="" style="edgeStyle=orthogonalEdgeStyle;rounded=1;orthogonalLoop=1;jettySize=auto;html=1;" parent="77e6c97f196da883-4" source="CSKlZBKtVKMVm3yxvU0s-6" target="CSKlZBKtVKMVm3yxvU0s-49" edge="1">
          <mxGeometry relative="1" as="geometry"/>
        </mxCell>
        <mxCell id="CSKlZBKtVKMVm3yxvU0s-6" value="Prüfung 1 durchführen (Bildverarbeitung)" style="rounded=1;whiteSpace=wrap;html=1;shadow=0;labelBackgroundColor=none;strokeColor=#000000;strokeWidth=1;fillColor=#ffffff;fontFamily=Verdana;fontSize=8;fontColor=#000000;align=center;" parent="77e6c97f196da883-4" vertex="1">
          <mxGeometry x="30" y="320" width="100" height="60" as="geometry"/>
        </mxCell>
        <mxCell id="CSKlZBKtVKMVm3yxvU0s-49" value="Rückmeldung IO/NIO" style="rounded=1;whiteSpace=wrap;html=1;shadow=0;labelBackgroundColor=none;strokeColor=#000000;strokeWidth=1;fillColor=#ffffff;fontFamily=Verdana;fontSize=8;fontColor=#000000;align=center;" parent="77e6c97f196da883-4" vertex="1">
          <mxGeometry x="30" y="410" width="100" height="60" as="geometry"/>
        </mxCell>
        <mxCell id="77e6c97f196da883-5" value="E.CON.TROL.CHECK.2" style="swimlane;html=1;startSize=20;" parent="77e6c97f196da883-1" vertex="1">
          <mxGeometry x="480" y="20" width="160" height="730" as="geometry"/>
        </mxCell>
        <mxCell id="77e6c97f196da883-15" value="Bild per NETMQ bereitstellen" style="rounded=1;whiteSpace=wrap;html=1;shadow=0;labelBackgroundColor=none;strokeColor=#000000;strokeWidth=1;fillColor=#ffffff;fontFamily=Verdana;fontSize=8;fontColor=#000000;align=center;" parent="77e6c97f196da883-5" vertex="1">
          <mxGeometry x="30" y="240" width="100" height="60" as="geometry"/>
        </mxCell>
        <mxCell id="CSKlZBKtVKMVm3yxvU0s-53" value="" style="edgeStyle=orthogonalEdgeStyle;rounded=1;orthogonalLoop=1;jettySize=auto;html=1;" parent="77e6c97f196da883-5" source="77e6c97f196da883-17" target="CSKlZBKtVKMVm3yxvU0s-52" edge="1">
          <mxGeometry relative="1" as="geometry"/>
        </mxCell>
        <mxCell id="77e6c97f196da883-17" value="Prüfung 2 durchführen (Bildverarbeitung)" style="rounded=1;whiteSpace=wrap;html=1;shadow=0;labelBackgroundColor=none;strokeColor=#000000;strokeWidth=1;fillColor=#ffffff;fontFamily=Verdana;fontSize=8;fontColor=#000000;align=center;" parent="77e6c97f196da883-5" vertex="1">
          <mxGeometry x="30" y="320" width="100" height="60" as="geometry"/>
        </mxCell>
        <mxCell id="CSKlZBKtVKMVm3yxvU0s-52" value="Rückmeldung IO/NIO" style="rounded=1;whiteSpace=wrap;html=1;shadow=0;labelBackgroundColor=none;strokeColor=#000000;strokeWidth=1;fillColor=#ffffff;fontFamily=Verdana;fontSize=8;fontColor=#000000;align=center;" parent="77e6c97f196da883-5" vertex="1">
          <mxGeometry x="30" y="410" width="100" height="60" as="geometry"/>
        </mxCell>
        <mxCell id="CSKlZBKtVKMVm3yxvU0s-1" value="Bildaufname bei Kamera 2" style="rounded=1;whiteSpace=wrap;html=1;shadow=0;labelBackgroundColor=none;strokeColor=#000000;strokeWidth=1;fillColor=#ffffff;fontFamily=Verdana;fontSize=8;fontColor=#000000;align=center;" parent="77e6c97f196da883-5" vertex="1">
          <mxGeometry x="30" y="160" width="100" height="60" as="geometry"/>
        </mxCell>
        <mxCell id="CSKlZBKtVKMVm3yxvU0s-3" value="" style="endArrow=classic;html=1;exitX=0.5;exitY=1;exitDx=0;exitDy=0;entryX=0.5;entryY=0;entryDx=0;entryDy=0;" parent="77e6c97f196da883-5" source="CSKlZBKtVKMVm3yxvU0s-1" target="77e6c97f196da883-15" edge="1">
          <mxGeometry width="50" height="50" relative="1" as="geometry">
            <mxPoint x="-90" y="310" as="sourcePoint"/>
            <mxPoint x="-40" y="260" as="targetPoint"/>
          </mxGeometry>
        </mxCell>
        <mxCell id="CSKlZBKtVKMVm3yxvU0s-8" value="" style="endArrow=classic;html=1;exitX=0.5;exitY=1;exitDx=0;exitDy=0;entryX=0.5;entryY=0;entryDx=0;entryDy=0;" parent="77e6c97f196da883-5" source="77e6c97f196da883-15" target="77e6c97f196da883-17" edge="1">
          <mxGeometry width="50" height="50" relative="1" as="geometry">
            <mxPoint x="-90" y="470" as="sourcePoint"/>
            <mxPoint x="-40" y="420" as="targetPoint"/>
          </mxGeometry>
        </mxCell>
        <mxCell id="77e6c97f196da883-6" value="Externe KI Prüfung" style="swimlane;html=1;startSize=20;" parent="77e6c97f196da883-1" vertex="1">
          <mxGeometry x="640" y="20" width="160" height="730" as="geometry"/>
        </mxCell>
        <mxCell id="77e6c97f196da883-14" value="Prüfung vorbereiten" style="rounded=1;whiteSpace=wrap;html=1;shadow=0;labelBackgroundColor=none;strokeColor=#000000;strokeWidth=1;fillColor=#ffffff;fontFamily=Verdana;fontSize=8;fontColor=#000000;align=center;" parent="77e6c97f196da883-6" vertex="1">
          <mxGeometry x="30" y="160" width="100" height="60" as="geometry"/>
        </mxCell>
        <mxCell id="CSKlZBKtVKMVm3yxvU0s-22" value="" style="edgeStyle=orthogonalEdgeStyle;rounded=1;orthogonalLoop=1;jettySize=auto;html=1;" parent="77e6c97f196da883-6" source="CSKlZBKtVKMVm3yxvU0s-9" target="CSKlZBKtVKMVm3yxvU0s-11" edge="1">
          <mxGeometry relative="1" as="geometry"/>
        </mxCell>
        <mxCell id="CSKlZBKtVKMVm3yxvU0s-9" value="Bild per NETMQ empfangen" style="rounded=1;whiteSpace=wrap;html=1;shadow=0;labelBackgroundColor=none;strokeColor=#000000;strokeWidth=1;fillColor=#ffffff;fontFamily=Verdana;fontSize=8;fontColor=#000000;align=center;" parent="77e6c97f196da883-6" vertex="1">
          <mxGeometry x="30" y="240" width="100" height="60" as="geometry"/>
        </mxCell>
        <mxCell id="77e6c97f196da883-39" style="edgeStyle=orthogonalEdgeStyle;rounded=1;html=1;labelBackgroundColor=none;startArrow=none;startFill=0;startSize=5;endArrow=classicThin;endFill=1;endSize=5;jettySize=auto;orthogonalLoop=1;strokeColor=#000000;strokeWidth=1;fontFamily=Verdana;fontSize=8;fontColor=#000000;exitX=0.5;exitY=1;exitDx=0;exitDy=0;entryX=0.5;entryY=0;entryDx=0;entryDy=0;" parent="77e6c97f196da883-6" source="77e6c97f196da883-14" target="CSKlZBKtVKMVm3yxvU0s-9" edge="1">
          <mxGeometry relative="1" as="geometry">
            <mxPoint x="30" y="670" as="targetPoint"/>
          </mxGeometry>
        </mxCell>
        <mxCell id="CSKlZBKtVKMVm3yxvU0s-55" value="" style="edgeStyle=orthogonalEdgeStyle;rounded=1;orthogonalLoop=1;jettySize=auto;html=1;" parent="77e6c97f196da883-6" source="CSKlZBKtVKMVm3yxvU0s-11" target="CSKlZBKtVKMVm3yxvU0s-54" edge="1">
          <mxGeometry relative="1" as="geometry"/>
        </mxCell>
        <mxCell id="CSKlZBKtVKMVm3yxvU0s-11" value="Prüfung durchführen" style="rounded=1;whiteSpace=wrap;html=1;shadow=0;labelBackgroundColor=none;strokeColor=#000000;strokeWidth=1;fillColor=#ffffff;fontFamily=Verdana;fontSize=8;fontColor=#000000;align=center;" parent="77e6c97f196da883-6" vertex="1">
          <mxGeometry x="30" y="320" width="100" height="60" as="geometry"/>
        </mxCell>
        <mxCell id="CSKlZBKtVKMVm3yxvU0s-54" value="Rückmeldung IO/NIO" style="rounded=1;whiteSpace=wrap;html=1;shadow=0;labelBackgroundColor=none;strokeColor=#000000;strokeWidth=1;fillColor=#ffffff;fontFamily=Verdana;fontSize=8;fontColor=#000000;align=center;" parent="77e6c97f196da883-6" vertex="1">
          <mxGeometry x="30" y="410" width="100" height="60" as="geometry"/>
        </mxCell>
        <mxCell id="77e6c97f196da883-7" value="Lane 6" style="swimlane;html=1;startSize=20;" parent="77e6c97f196da883-1" vertex="1">
          <mxGeometry x="800" y="20" width="160" height="730" as="geometry"/>
        </mxCell>
        <mxCell id="CSKlZBKtVKMVm3yxvU0s-16" value="" style="edgeStyle=orthogonalEdgeStyle;rounded=1;orthogonalLoop=1;jettySize=auto;html=1;" parent="77e6c97f196da883-1" source="77e6c97f196da883-20" target="77e6c97f196da883-10" edge="1">
          <mxGeometry relative="1" as="geometry"/>
        </mxCell>
        <mxCell id="CSKlZBKtVKMVm3yxvU0s-33" value="" style="edgeStyle=orthogonalEdgeStyle;rounded=1;orthogonalLoop=1;jettySize=auto;html=1;exitX=0.506;exitY=0.56;exitDx=0;exitDy=0;exitPerimeter=0;entryX=0.5;entryY=0;entryDx=0;entryDy=0;" parent="77e6c97f196da883-1" source="CSKlZBKtVKMVm3yxvU0s-29" target="77e6c97f196da883-12" edge="1">
          <mxGeometry relative="1" as="geometry">
            <mxPoint x="400" y="170" as="targetPoint"/>
            <Array as="points">
              <mxPoint x="240" y="290"/>
              <mxPoint x="340" y="290"/>
              <mxPoint x="340" y="140"/>
              <mxPoint x="400" y="140"/>
            </Array>
          </mxGeometry>
        </mxCell>
        <mxCell id="CSKlZBKtVKMVm3yxvU0s-35" value="" style="edgeStyle=orthogonalEdgeStyle;rounded=1;orthogonalLoop=1;jettySize=auto;html=1;entryX=0.5;entryY=0;entryDx=0;entryDy=0;exitX=0.517;exitY=1.04;exitDx=0;exitDy=0;exitPerimeter=0;" parent="77e6c97f196da883-1" source="CSKlZBKtVKMVm3yxvU0s-29" target="CSKlZBKtVKMVm3yxvU0s-1" edge="1">
          <mxGeometry relative="1" as="geometry">
            <Array as="points">
              <mxPoint x="241" y="273"/>
              <mxPoint x="330" y="273"/>
              <mxPoint x="330" y="100"/>
              <mxPoint x="560" y="100"/>
            </Array>
          </mxGeometry>
        </mxCell>
        <mxCell id="CSKlZBKtVKMVm3yxvU0s-36" value="" style="edgeStyle=orthogonalEdgeStyle;rounded=1;orthogonalLoop=1;jettySize=auto;html=1;entryX=0.5;entryY=0;entryDx=0;entryDy=0;" parent="77e6c97f196da883-1" source="CSKlZBKtVKMVm3yxvU0s-29" target="77e6c97f196da883-14" edge="1">
          <mxGeometry relative="1" as="geometry">
            <Array as="points">
              <mxPoint x="200" y="273"/>
              <mxPoint x="200" y="300"/>
              <mxPoint x="310" y="300"/>
              <mxPoint x="310" y="70"/>
              <mxPoint x="720" y="70"/>
            </Array>
          </mxGeometry>
        </mxCell>
        <mxCell id="CSKlZBKtVKMVm3yxvU0s-51" value="" style="edgeStyle=orthogonalEdgeStyle;rounded=1;orthogonalLoop=1;jettySize=auto;html=1;" parent="77e6c97f196da883-1" source="CSKlZBKtVKMVm3yxvU0s-49" edge="1">
          <mxGeometry relative="1" as="geometry">
            <mxPoint x="260" y="530" as="targetPoint"/>
            <Array as="points">
              <mxPoint x="400" y="510"/>
              <mxPoint x="260" y="510"/>
            </Array>
          </mxGeometry>
        </mxCell>
        <mxCell id="CSKlZBKtVKMVm3yxvU0s-56" value="" style="edgeStyle=orthogonalEdgeStyle;rounded=1;orthogonalLoop=1;jettySize=auto;html=1;" parent="77e6c97f196da883-1" source="CSKlZBKtVKMVm3yxvU0s-52" edge="1">
          <mxGeometry relative="1" as="geometry">
            <mxPoint x="242" y="530" as="targetPoint"/>
            <Array as="points">
              <mxPoint x="560" y="510"/>
              <mxPoint x="242" y="510"/>
            </Array>
          </mxGeometry>
        </mxCell>
        <mxCell id="CSKlZBKtVKMVm3yxvU0s-59" value="" style="edgeStyle=orthogonalEdgeStyle;rounded=1;orthogonalLoop=1;jettySize=auto;html=1;exitX=0.5;exitY=1;exitDx=0;exitDy=0;entryX=0.257;entryY=0.08;entryDx=0;entryDy=0;entryPerimeter=0;" parent="77e6c97f196da883-1" source="CSKlZBKtVKMVm3yxvU0s-54" target="CSKlZBKtVKMVm3yxvU0s-30" edge="1">
          <mxGeometry relative="1" as="geometry">
            <mxPoint x="440" y="610" as="targetPoint"/>
            <mxPoint x="570" y="500" as="sourcePoint"/>
          </mxGeometry>
        </mxCell>
      </root>
    </mxGraphModel>
  </diagram>
</mxfile>
